<?xml version="1.0" encoding="utf-8"?>
<!-- Generator: Adobe Illustrator 22.0.2, SVG Export Plug-In . SVG Version: 6.00 Build 0)  -->
<svg version="1.1" id="图层_1" xmlns="http://www.w3.org/2000/svg" xmlns:xlink="http://www.w3.org/1999/xlink" x="0px" y="0px"
	 viewBox="0 0 100 70" style="enable-background:new 0 0 100 70;" xml:space="preserve">
<style type="text/css">
	.st0{fill:#650300;}
</style>
<path class="st0" d="M25.9,64.8C13.8,64.8,4,55,4,42.9S13.8,21,25.9,21c12.1,0,21.9,9.8,21.9,21.9C47.8,55,38,64.8,25.9,64.8z
	 M25.9,25c-9.9,0-17.8,8-17.8,17.8c0,9.9,8,17.8,17.8,17.8s17.8-8,17.8-17.8l0,0C43.8,33,35.8,25.1,25.9,25z"/>
<path class="st0" d="M74.1,64.8C62,64.8,52.2,55,52.2,42.9C52.2,30.8,62,21,74.1,21C86.2,21,96,30.8,96,42.9
	C96,55,86.2,64.8,74.1,64.8z M74.1,25c-9.9,0-17.8,8-17.8,17.8c0,9.9,8,17.8,17.8,17.8c9.9,0,17.8-8,17.8-17.8
	C91.9,33,83.9,25.1,74.1,25z"/>
<path class="st0" d="M33.7,60.9c0.6,0,1.1,0.1,1.6,0.2c4.7,1.1,9.8,1.6,15,1.5c4.9,0.1,9.7-0.4,14.1-1.5c1.7-0.5,4-0.2,5,0.7
	s0.5,2-1.3,2.6c0,0-0.1,0-0.1,0c-5.5,1.4-11.6,2.1-17.7,2c-6.3,0-12.5-0.6-18.3-2c-1.8-0.5-2.5-1.6-1.6-2.5
	C31.1,61.3,32.3,60.9,33.7,60.9L33.7,60.9z"/>
</svg>
