<?xml version="1.0" encoding="utf-8"?>
<!-- Generator: Adobe Illustrator 22.0.2, SVG Export Plug-In . SVG Version: 6.00 Build 0)  -->
<svg version="1.1" id="图层_1" xmlns="http://www.w3.org/2000/svg" xmlns:xlink="http://www.w3.org/1999/xlink" x="0px" y="0px"
	 viewBox="0 0 100 100" style="enable-background:new 0 0 100 100;" xml:space="preserve">
<style type="text/css">
	.st0{fill:#650300;stroke:#650300;stroke-width:3;stroke-miterlimit:10;}
</style>
<path class="st0" d="M50,97.5L50,97.5C23.8,97.5,2.5,76.2,2.5,50S23.8,2.5,50,2.5S97.5,23.8,97.5,50C97.5,76.2,76.2,97.5,50,97.5
	L50,97.5z M50,6.3C25.9,6.3,6.3,25.9,6.3,50S25.9,93.7,50,93.7l0,0c24.1,0,43.7-19.6,43.7-43.7C93.7,25.9,74.1,6.3,50,6.3L50,6.3z"
	/>
<g transform="translate(34.247 14.374)">
	<path class="st0" d="M16.2,65.4c-9.4,0-17-7.1-17-15.9c0-1.2,0.9-2.1,2.1-2.1s2.1,0.9,2.1,2.1c0,6.5,5.7,11.8,12.8,11.8
		S29,56,29,49.5s-5.7-11.8-12.8-11.8c-9.4,0-17-7.1-17-15.9s7.6-15.9,17-15.9c5,0,9.7,2,13,5.7c0.8,0.9,0.7,2.2-0.2,2.9c0,0,0,0,0,0
		c-0.9,0.8-2.2,0.7-3-0.2c-2.5-2.8-6.1-4.3-9.9-4.3c-7.1,0-12.8,5.3-12.8,11.8s5.7,11.8,12.8,11.8c9.4,0,17,7.1,17,15.9
		S25.6,65.4,16.2,65.4z"/>
	<path class="st0" d="M15.8,73c-1.2,0-2.1-0.9-2.1-2.1V0.4c0-1.2,0.9-2.1,2.1-2.1c1.2,0,2.1,0.9,2.1,2.1V71
		C17.9,72.1,16.9,73,15.8,73z"/>
</g>
</svg>
